<svg style="height: 512px; width: 512px;" xmlns="http://www.w3.org/2000/svg" viewBox="0 0 512 512"><g class="" style="" transform="translate(-101.6,0)"><g>
<path d="M350.5 33.05C336.6 63.63 321.1 94.34 288.9 118.4C296.2 121.8 309.6 124.6 316.8 126.9C304.6 145.6 283.8 163.3 264.8 179.2C275.9 184.9 286.9 189.5 297.9 193.2C283.8 215.4 267 236.5 246 255.6C262.7 264.9 279.3 272.2 295.8 277.4C277.9 302.8 255.4 327 223.7 353.5C275.2 380 320.7 392.3 365.9 390.9C367.7 390.9 369.6 391 371.4 391L371.4 390.7C411.3 388.5 451 375.7 494.6 352.7C455.8 328.2 431.7 305 413.2 279.5C431 274.3 448.8 266.6 466.5 256.4C440.7 238.7 422.3 217.8 407.6 194.9C419.7 191.2 431.7 186.2 443.7 179.9C420.5 165.3 399.6 147.6 387 128.5C395.8 126.1 409.8 123.2 418.5 119.1C380 97.34 369.6 65.94 350.5 33.05Z" class="" fill="#000000" fill-opacity="0.1" stroke="#000000" stroke-opacity="0.5" stroke-width="8"></path>
<path d="M338.8 407.9L336.1 478.3L379.1 478.9L373 409C361.4 409 349.9 408.7 338.8 407.9Z" class="" fill="#000000" fill-opacity="0.1" stroke="#000000" stroke-opacity="0.5" stroke-width="8"></path>
</g></g></svg>