<svg style="height: 512px; width: 512px;" xmlns="http://www.w3.org/2000/svg" viewBox="0 0 512 512"><g class="" style="" transform="translate(0,0)"><g><path d="M128 137C85.343 137 48.273 147.965 18 162.322L18 290.324C48.184 284.874 77.138 281.93 104.82 281.244C155.72 279.984 202.345 286.294 244.564 298.364C287.332 271.254 331.304 245.549 378.951 225.316C304.435 169.018 211.563 137 128 137Z" class="" fill="#000000" fill-opacity="0.1" stroke="#000000" stroke-opacity="0.5" stroke-width="8"></path><path d="M494 208.98C408.305 224.79 336.34 262.423 267.047 305.465C289.127 313.131 309.897 322.402 329.33 333.002C403.042 373.212 457.467 432.165 492.14 494L494 494L494 208.98Z" class="" fill="#000000" fill-opacity="0.1" stroke="#000000" stroke-opacity="0.5" stroke-width="8"></path><path d="M120.97 298.988C115.774 298.954 110.53 299.004 105.232 299.138C77.55 299.841 48.465 302.918 18 308.638L18 494L471.242 494C437.996 438.22 387.655 385.322 320.712 348.805C265.455 318.663 198.895 299.495 120.969 298.988Z" class="" fill="#000000" fill-opacity="0.1" stroke="#000000" stroke-opacity="0.5" stroke-width="8"></path></g></g></svg>