<svg style="height: 512px; width: 512px;" xmlns="http://www.w3.org/2000/svg" viewBox="0 0 512 512"><g class="" style="" transform="translate(0,-150)"><g>
<g class="" style="" transform="translate(0,-110)"><path d="M371.189 355.138C347.092 355.008 328.223 369.828 310.917 382.951C293.611 396.074 277.793 407.524 261.415 407.815C245.335 408.102 229.785 398.729 212.761 387.399C195.738 376.069 177.511 362.879 154.917 360.796C129.527 358.456 96.257 366.656 68.36 375.03C40.465 383.402 18.29 392.31 18.29 392.31L24.996 409.012C24.996 409.012 46.488 400.388 73.536 392.269C100.583 384.149 133.536 376.899 153.266 378.719C169.543 380.219 185.544 390.905 202.789 402.382C220.033 413.858 238.789 426.22 261.735 425.812C285.778 425.382 304.528 410.384 321.792 397.294C339.056 384.204 354.762 373.049 371.092 373.138C388.485 373.232 417.116 386.485 440.044 400.368C462.972 414.25 480.706 428.113 480.706 428.113L491.796 413.937C491.796 413.937 473.32 399.473 449.366 384.97C425.412 370.466 396.489 355.274 371.188 355.136Z" class="" fill="#000000" fill-opacity="0.1" stroke="#000000" stroke-opacity="0.5" stroke-width="8"></path></g>
<path d="M371.189 355.138C347.092 355.008 328.223 369.828 310.917 382.951C293.611 396.074 277.793 407.524 261.415 407.815C245.335 408.102 229.785 398.729 212.761 387.399C195.738 376.069 177.511 362.879 154.917 360.796C129.527 358.456 96.257 366.656 68.36 375.03C40.465 383.402 18.29 392.31 18.29 392.31L24.996 409.012C24.996 409.012 46.488 400.388 73.536 392.269C100.583 384.149 133.536 376.899 153.266 378.719C169.543 380.219 185.544 390.905 202.789 402.382C220.033 413.858 238.789 426.22 261.735 425.812C285.778 425.382 304.528 410.384 321.792 397.294C339.056 384.204 354.762 373.049 371.092 373.138C388.485 373.232 417.116 386.485 440.044 400.368C462.972 414.25 480.706 428.113 480.706 428.113L491.796 413.937C491.796 413.937 473.32 399.473 449.366 384.97C425.412 370.466 396.489 355.274 371.188 355.136Z" class="" fill="#000000" fill-opacity="0.1" stroke="#000000" stroke-opacity="0.5" stroke-width="8"></path>
<g class="" style="" transform="translate(0,110)"><path d="M371.189 355.138C347.092 355.008 328.223 369.828 310.917 382.951C293.611 396.074 277.793 407.524 261.415 407.815C245.335 408.102 229.785 398.729 212.761 387.399C195.738 376.069 177.511 362.879 154.917 360.796C129.527 358.456 96.257 366.656 68.36 375.03C40.465 383.402 18.29 392.31 18.29 392.31L24.996 409.012C24.996 409.012 46.488 400.388 73.536 392.269C100.583 384.149 133.536 376.899 153.266 378.719C169.543 380.219 185.544 390.905 202.789 402.382C220.033 413.858 238.789 426.22 261.735 425.812C285.778 425.382 304.528 410.384 321.792 397.294C339.056 384.204 354.762 373.049 371.092 373.138C388.485 373.232 417.116 386.485 440.044 400.368C462.972 414.25 480.706 428.113 480.706 428.113L491.796 413.937C491.796 413.937 473.32 399.473 449.366 384.97C425.412 370.466 396.489 355.274 371.188 355.136Z" class="" fill="#000000" fill-opacity="0.1" stroke="#000000" stroke-opacity="0.5" stroke-width="8"></path></g>
</g></g></svg>